<svg width="16" height="31" viewBox="0 0 16 31" fill="none" xmlns="http://www.w3.org/2000/svg">
  <path d="M9.86934 2.96877C9.5278 1.65818 8.70769 0.645085 7.44721 0.222759C6.19499 -0.203655 4.60533 -0.00454431 3.17013 0.705898C1.73493 1.41634 0.612661 2.55967 0.192419 3.81397C-0.23608 5.07236 0.0722069 6.33881 0.907258 7.40511C0.907258 7.40511 0.907258 7.40511 0.907258 7.40511C1.06426 7.60488 1.21844 7.80065 1.37036 7.99353C4.12546 11.5571 6.70475 15.0411 8.30135 19.0969C8.39177 19.325 8.48025 19.5569 8.56692 19.7904C8.70883 20.1797 9.03349 20.5257 9.42145 20.7591C9.81219 20.992 10.2343 21.0934 10.643 21.0338C11.0517 20.9742 11.4274 20.7565 11.7353 20.4217C12.0405 20.0872 12.2529 19.663 12.2777 19.2493C12.2777 19.2493 12.2777 19.2493 12.2777 19.2493C12.2912 18.9807 12.3019 18.7086 12.3097 18.4356C12.4683 13.4148 11.2929 8.41262 10.0791 3.75024C10.0117 3.49309 9.94202 3.233 9.86934 2.96877Z" fill="#D7316E"/>
  <circle cx="11.7897" cy="27.3033" r="3" transform="rotate(-8.29553 11.7897 27.3033)" fill="#D7316E"/>
</svg>
