<svg width="332" height="78" viewBox="0 0 332 78" fill="none" xmlns="http://www.w3.org/2000/svg">

<path id="&#197;&#154;wiadomy wyb&#195;&#179;r.Lepsza relacja. Lepsza przyszlo&#197;&#155;&#196;&#135;." d="M36.0405 14.626H36.2805C36.7285 14.626 36.9845 14.89 37.0485 15.418C37.0485 15.882 36.4165 16.114 35.1525 16.114C33.1205 16.882 31.7525 18.002 31.0485 19.474L30.8805 20.17V20.314C30.8805 21.018 31.3525 21.37 32.2965 21.37L34.9365 21.226C36.7125 21.226 37.9125 22.09 38.5365 23.818L38.6805 24.658C38.6805 26.322 37.3365 27.842 34.6485 29.218C33.8485 29.442 33.1445 29.594 32.5365 29.674C30.9045 29.674 29.7525 28.754 29.0805 26.914C28.8885 26.29 28.7925 25.658 28.7925 25.018C28.7925 24.826 28.9445 24.626 29.2485 24.418H29.5365C30.0325 24.418 30.2805 25.05 30.2805 26.314C30.6965 27.562 31.3525 28.186 32.2485 28.186H32.8965C34.1925 28.186 35.4725 27.434 36.7365 25.93C37.0725 25.45 37.2405 24.93 37.2405 24.37C37.2405 23.586 36.6245 23.034 35.3925 22.714H35.2965L32.1525 22.786C30.4085 22.578 29.5365 21.858 29.5365 20.626L29.4405 20.314C29.4405 18.666 30.6725 17.066 33.1365 15.514C34.2085 14.922 35.1765 14.626 36.0405 14.626ZM30.4965 12.274C30.5285 11.81 30.7685 11.506 31.2165 11.362C33.8245 10.114 35.4325 9.48998 36.0405 9.48998C36.0725 9.48998 36.0965 9.48998 36.1125 9.48998C36.5125 9.50598 36.7365 9.80198 36.7845 10.378L36.6165 11.05C34.4405 11.818 33.1365 12.258 32.7045 12.37C32.5285 12.626 32.0245 12.89 31.1925 13.162C30.8085 13.13 30.5765 12.834 30.4965 12.274ZM48.6424 21.298C49.7464 22.034 50.2984 23.17 50.2984 24.706C50.2984 26.786 49.6024 28.202 48.2104 28.954L47.2984 29.098C46.7544 29.098 46.1784 28.834 45.5704 28.306H45.4024C44.9064 28.946 44.4424 29.266 44.0104 29.266C42.8744 29.266 42.2184 28.194 42.0424 26.05V24.754C42.1544 22.722 42.5784 21.706 43.3144 21.706C43.7144 21.706 43.9464 21.954 44.0104 22.45C43.6424 23.09 43.4584 23.986 43.4584 25.138V25.594C43.5224 27.034 43.6744 27.754 43.9144 27.754C44.1544 27.754 44.4024 27.338 44.6584 26.506L44.6104 24.85C44.6104 23.746 44.8744 23.194 45.4024 23.194C46.0104 23.194 46.3144 23.794 46.3144 24.994H46.4104L46.1704 26.506C46.4424 27.306 46.8184 27.706 47.2984 27.706H47.4424C48.1464 27.706 48.6024 26.954 48.8104 25.45V24.106C48.8104 23.594 48.5064 22.962 47.8984 22.21L47.8024 21.994C47.8024 21.658 48.0824 21.426 48.6424 21.298ZM53.9077 16.33C54.5157 16.458 54.8197 16.73 54.8197 17.146C54.6597 17.594 54.4037 17.818 54.0517 17.818C53.4597 17.706 53.1637 17.41 53.1637 16.93C53.3237 16.53 53.5717 16.33 53.9077 16.33ZM54.8197 19.69C55.0757 19.69 55.2917 19.922 55.4677 20.386L55.2517 22.09V23.218C55.2517 24.53 55.4757 26.25 55.9237 28.378C55.7637 28.682 55.4917 28.834 55.1077 28.834C54.4517 28.834 54.0197 26.914 53.8117 23.074V22.234C53.8117 20.538 54.1477 19.69 54.8197 19.69ZM63.8068 19.57C64.5108 19.57 64.8628 19.85 64.8628 20.41L64.6468 20.866L64.5028 25.258C64.5028 27.242 64.9028 28.474 65.7028 28.954L65.7508 29.314C65.7028 29.778 65.4868 30.01 65.1028 30.01H64.9588C63.7588 29.194 63.1588 27.946 63.1588 26.266H62.9908C62.3508 28.058 61.5748 28.954 60.6628 28.954C59.8148 28.714 59.3908 28.082 59.3908 27.058C59.3908 24.802 60.2948 22.554 62.1028 20.314C62.7108 19.818 63.2788 19.57 63.8068 19.57ZM60.9028 26.098L60.8068 26.77V27.226H61.0468C62.2468 24.234 62.8468 22.41 62.8468 21.754H62.7508C61.8228 22.794 61.2068 24.242 60.9028 26.098ZM74.1266 15.658C74.3986 15.658 74.6466 15.914 74.8706 16.426L73.8146 23.098V24.97C73.8146 26.922 74.1186 27.898 74.7266 27.898C75.1266 28.09 75.3266 28.346 75.3266 28.666C75.3266 29.034 75.0066 29.25 74.3666 29.314C73.6626 29.314 73.1106 28.666 72.7106 27.37H72.4706C71.8786 28.666 71.1586 29.314 70.3106 29.314C69.3186 29.314 68.7186 28.562 68.5106 27.058C68.5106 25.314 69.6786 23.466 72.0146 21.514C72.4786 21.514 72.7106 20.866 72.7106 19.57C73.0626 16.962 73.5346 15.658 74.1266 15.658ZM69.9266 26.866V27.514L70.3106 27.898H70.4546C70.9666 27.898 71.5666 26.354 72.2546 23.266H72.1106C70.6546 24.722 69.9266 25.922 69.9266 26.866ZM82.1741 19.786C83.3581 19.786 84.2541 20.666 84.8621 22.426L84.9581 22.93C84.9581 24.642 84.1581 26.394 82.5581 28.186C81.9181 28.778 81.2701 29.074 80.6141 29.074C79.6541 29.074 78.9741 28.522 78.5741 27.418C78.4301 26.906 78.3581 26.458 78.3581 26.074V25.786C78.3581 23.258 79.2781 21.338 81.1181 20.026C81.4381 19.866 81.7901 19.786 82.1741 19.786ZM79.7741 26.026C79.7741 27.114 80.0541 27.658 80.6141 27.658C81.7821 27.658 82.7501 26.162 83.5181 23.17V22.714C83.2461 21.722 82.7421 21.226 82.0061 21.226C81.7181 21.226 81.5741 21.426 81.5741 21.826C81.5741 22.098 81.2541 22.314 80.6141 22.474C80.0541 23.418 79.7741 24.602 79.7741 26.026ZM88.5656 20.434C88.6776 20.034 88.9336 19.834 89.3336 19.834C89.7336 19.834 89.9976 20.234 90.1256 21.034H90.2216L91.3256 20.794C91.8376 20.794 92.3336 21.274 92.8136 22.234H92.9096C93.6136 21.13 94.3336 20.578 95.0696 20.578C96.6376 20.866 97.4216 21.89 97.4216 23.65L97.4696 24.49L97.2536 29.338V29.794C97.2536 30.194 97.0056 30.426 96.5096 30.49C96.0136 30.49 95.7656 29.906 95.7656 28.738L96.0536 24.394C96.0536 22.794 95.6776 21.994 94.9256 21.994C94.4936 21.994 93.9736 23.042 93.3656 25.138C93.0616 27.538 92.8136 28.738 92.6216 28.738C92.3496 28.738 92.2136 28.794 92.2136 28.906C91.7176 28.842 91.4696 28.586 91.4696 28.138L91.7816 25.234C91.7336 23.234 91.5336 22.234 91.1816 22.234H91.1096C90.7096 22.538 90.5096 23.138 90.5096 24.034V25.306L90.4136 28.978C90.3016 29.378 90.0536 29.578 89.6696 29.578C89.3336 29.578 89.1176 29.298 89.0216 28.738L88.9256 25.906L89.0696 23.578C88.9736 22.378 88.8056 21.33 88.5656 20.434ZM101.727 21.634C102.287 21.634 102.671 22.866 102.879 25.33C103.151 26.466 103.351 27.034 103.479 27.034H103.623C104.023 26.026 104.223 25.026 104.223 24.034L104.079 22.378C104.255 21.946 104.503 21.73 104.823 21.73C105.415 21.73 105.711 22.778 105.711 24.874C106.063 27.05 106.239 29.074 106.239 30.946V32.074C106.239 35.514 105.263 37.834 103.311 39.034L102.783 39.13C101.871 39.13 101.023 38.282 100.239 36.586L100.023 35.146V35.074C100.023 34.018 100.319 33.49 100.911 33.49L101.511 33.874L101.439 35.386C101.439 36.122 101.815 36.866 102.567 37.618H102.879C103.759 37.618 104.407 35.938 104.823 32.578L104.871 31.186C104.855 29.57 104.791 28.538 104.679 28.09C104.039 28.65 103.535 28.93 103.167 28.93C102.351 28.93 101.623 26.746 100.983 22.378L100.911 22.33C100.911 21.962 101.183 21.73 101.727 21.634ZM127.469 21.298C128.573 22.034 129.125 23.17 129.125 24.706C129.125 26.786 128.429 28.202 127.037 28.954L126.125 29.098C125.581 29.098 125.005 28.834 124.397 28.306H124.229C123.733 28.946 123.269 29.266 122.837 29.266C121.701 29.266 121.045 28.194 120.869 26.05V24.754C120.981 22.722 121.405 21.706 122.141 21.706C122.541 21.706 122.773 21.954 122.837 22.45C122.469 23.09 122.285 23.986 122.285 25.138V25.594C122.349 27.034 122.501 27.754 122.741 27.754C122.981 27.754 123.229 27.338 123.485 26.506L123.437 24.85C123.437 23.746 123.701 23.194 124.229 23.194C124.837 23.194 125.141 23.794 125.141 24.994H125.237L124.997 26.506C125.269 27.306 125.645 27.706 126.125 27.706H126.269C126.973 27.706 127.429 26.954 127.637 25.45V24.106C127.637 23.594 127.333 22.962 126.725 22.21L126.629 21.994C126.629 21.658 126.909 21.426 127.469 21.298ZM133.215 21.634C133.775 21.634 134.159 22.866 134.367 25.33C134.639 26.466 134.839 27.034 134.967 27.034H135.111C135.511 26.026 135.711 25.026 135.711 24.034L135.567 22.378C135.743 21.946 135.991 21.73 136.311 21.73C136.903 21.73 137.199 22.778 137.199 24.874C137.551 27.05 137.727 29.074 137.727 30.946V32.074C137.727 35.514 136.751 37.834 134.799 39.034L134.271 39.13C133.359 39.13 132.511 38.282 131.727 36.586L131.511 35.146V35.074C131.511 34.018 131.807 33.49 132.399 33.49L132.999 33.874L132.927 35.386C132.927 36.122 133.303 36.866 134.055 37.618H134.367C135.247 37.618 135.895 35.938 136.311 32.578L136.359 31.186C136.343 29.57 136.279 28.538 136.167 28.09C135.527 28.65 135.023 28.93 134.655 28.93C133.839 28.93 133.111 26.746 132.471 22.378L132.399 22.33C132.399 21.962 132.671 21.73 133.215 21.634ZM141.15 17.434C141.982 17.434 142.518 19.066 142.758 22.33L142.902 23.074C143.638 21.57 144.238 20.818 144.702 20.818C144.702 20.754 144.87 20.706 145.206 20.674H145.302C146.358 20.674 147.03 21.498 147.318 23.146V23.218C147.318 24.626 146.614 26.178 145.206 27.874C144.614 28.514 143.966 28.834 143.262 28.834C142.462 28.658 142.062 28.258 142.062 27.634L140.862 19.018L140.502 18.13C140.502 17.842 140.718 17.61 141.15 17.434ZM143.646 27.178H143.718C144.55 26.842 145.278 25.698 145.902 23.746V22.834C145.758 22.338 145.574 22.09 145.35 22.09H145.158C144.454 22.506 143.95 24.202 143.646 27.178ZM154.528 19.786C155.712 19.786 156.608 20.666 157.216 22.426L157.312 22.93C157.312 24.642 156.512 26.394 154.912 28.186C154.272 28.778 153.624 29.074 152.968 29.074C152.008 29.074 151.328 28.522 150.928 27.418C150.784 26.906 150.712 26.458 150.712 26.074V25.786C150.712 23.258 151.632 21.338 153.472 20.026C153.792 19.866 154.144 19.786 154.528 19.786ZM152.128 26.026C152.128 27.114 152.408 27.658 152.968 27.658C154.136 27.658 155.104 26.162 155.872 23.17V22.714C155.6 21.722 155.096 21.226 154.36 21.226C154.072 21.226 153.928 21.426 153.928 21.826C153.928 22.098 153.608 22.314 152.968 22.474C152.408 23.418 152.128 24.602 152.128 26.026ZM150.448 16.786C150.48 16.322 150.72 16.018 151.168 15.874C153.776 14.626 155.384 14.002 155.992 14.002C156.024 14.002 156.048 14.002 156.064 14.002C156.464 14.018 156.688 14.314 156.736 14.89L156.568 15.562C154.392 16.33 153.088 16.77 152.656 16.882C152.48 17.138 151.976 17.402 151.144 17.674C150.76 17.642 150.528 17.346 150.448 16.786ZM163.704 19.378C164.712 19.378 165.312 20.082 165.504 21.49V21.706C165.504 23.258 164.704 24.682 163.104 25.978C164.032 26.89 165.656 27.346 167.976 27.346C168.328 27.458 168.504 27.706 168.504 28.09C168.504 28.522 168.224 28.738 167.664 28.738C166.096 28.738 164.448 28.338 162.72 27.538V28.234C162.72 29.882 162.368 30.706 161.664 30.706C161.168 30.706 160.92 29.754 160.92 27.85V25.978L160.848 25.306L161.016 24.538L160.848 22.234V22.138C160.848 21.706 161.072 21.41 161.52 21.25C162.144 20.002 162.872 19.378 163.704 19.378ZM162.504 24.634C162.968 24.634 163.488 23.802 164.064 22.138V21.106L163.776 20.794H163.56C162.856 21.274 162.504 22.554 162.504 24.634ZM173.406 27.418C173.742 27.418 173.942 27.69 174.006 28.234C173.91 28.794 173.63 29.074 173.166 29.074C172.846 29.074 172.622 28.794 172.494 28.234C172.686 27.69 172.99 27.418 173.406 27.418ZM179.109 16.57C179.493 16.57 179.741 17.17 179.853 18.37L179.949 19.666C179.949 20.642 179.773 23.186 179.421 27.298H179.565V27.37L179.661 27.298H179.853L182.661 27.514H182.853L184.053 27.154H184.221C184.477 27.314 184.653 27.538 184.749 27.826C184.749 28.434 184.069 28.81 182.709 28.954L180.261 28.714H179.805L178.653 29.026C178.221 28.866 178.005 28.61 178.005 28.258L178.509 20.026V19.666L178.365 17.266C178.365 16.866 178.613 16.634 179.109 16.57ZM189.871 20.218C190.511 20.234 191.591 21.354 193.111 23.578L193.159 23.986C193.159 24.434 192.063 24.778 189.871 25.018L189.799 25.09V25.186C190.135 26.626 190.487 27.346 190.855 27.346H191.143C191.655 27.346 192.431 26.794 193.471 25.69H193.615C193.935 25.69 194.183 25.922 194.359 26.386C194.359 26.77 193.687 27.434 192.343 28.378C191.991 28.586 191.567 28.738 191.071 28.834C189.775 28.834 188.871 27.618 188.359 25.186C187.623 25.074 187.255 24.77 187.255 24.274C187.255 23.922 187.527 23.69 188.071 23.578V23.674L188.311 23.578V22.978C188.311 21.138 188.831 20.218 189.871 20.218ZM190.015 21.946H189.799L189.703 22.834V23.578H189.799C190.695 23.546 191.143 23.45 191.143 23.29C190.727 22.666 190.351 22.218 190.015 21.946ZM200.394 21.706C202.09 21.706 203.09 22.77 203.394 24.898C203.394 26.786 202.514 28.138 200.754 28.954C200.562 29.05 200.298 29.098 199.962 29.098H199.794L199.266 29.05V29.098L199.362 35.506C199.25 36.002 198.994 36.25 198.594 36.25C198.146 36.106 197.922 35.874 197.922 35.554L197.706 22.498C197.706 22.082 197.954 21.866 198.45 21.85L198.954 22.066C199.402 21.826 199.882 21.706 200.394 21.706ZM199.194 24.25L199.122 24.994L199.194 27.538L199.866 27.706C200.938 27.706 201.634 26.922 201.954 25.354V24.994C201.842 23.73 201.394 23.098 200.61 23.098H200.25C199.546 23.098 199.194 23.482 199.194 24.25ZM211.504 19.114C211.936 19.114 212.232 19.842 212.392 21.298C212.232 21.698 211.968 21.898 211.6 21.898C211.344 21.85 211.088 21.554 210.832 21.01L210.4 20.866C209.648 20.866 208.968 21.362 208.36 22.354V22.57C208.36 22.81 209.488 23.21 211.744 23.77C212.688 24.33 213.16 25.01 213.16 25.81C213.16 27.122 212.104 28.242 209.992 29.17L209.104 29.314C207.76 29.17 207.088 28.498 207.088 27.298V27.226C207.088 26.842 207.336 26.618 207.832 26.554C208.216 26.554 208.472 26.954 208.6 27.754L208.792 27.898H209.2C210.112 27.898 210.96 27.274 211.744 26.026V25.714C211.744 25.234 210.696 24.786 208.6 24.37C207.496 23.922 206.944 23.298 206.944 22.498C206.944 21.458 207.816 20.482 209.56 19.57C210.328 19.474 210.976 19.322 211.504 19.114ZM219.871 21.586C220.175 21.586 220.399 21.81 220.543 22.258C219.119 25.874 218.367 27.874 218.287 28.258L218.383 28.33H219.127C219.895 28.33 220.943 27.978 222.271 27.274C222.719 27.274 222.943 27.554 222.943 28.114C222.047 29.218 220.647 29.77 218.743 29.77L217.639 29.626C217.271 29.866 217.015 29.986 216.871 29.986C216.375 29.986 216.127 29.53 216.127 28.618C216.127 28.426 216.399 28.13 216.943 27.73L218.599 23.314V23.218H218.527L216.487 23.386C215.943 23.274 215.671 23.002 215.671 22.57C215.671 22.17 215.895 21.97 216.343 21.97C217.207 21.97 218.383 21.842 219.871 21.586ZM230.324 19.57C231.028 19.57 231.38 19.85 231.38 20.41L231.164 20.866L231.02 25.258C231.02 27.242 231.42 28.474 232.22 28.954L232.268 29.314C232.22 29.778 232.004 30.01 231.62 30.01H231.476C230.276 29.194 229.676 27.946 229.676 26.266H229.508C228.868 28.058 228.092 28.954 227.18 28.954C226.332 28.714 225.908 28.082 225.908 27.058C225.908 24.802 226.812 22.554 228.62 20.314C229.228 19.818 229.796 19.57 230.324 19.57ZM227.42 26.098L227.324 26.77V27.226H227.564C228.764 24.234 229.364 22.41 229.364 21.754H229.268C228.34 22.794 227.724 24.242 227.42 26.098ZM249.378 19.378C250.386 19.378 250.986 20.082 251.178 21.49V21.706C251.178 23.258 250.378 24.682 248.778 25.978C249.706 26.89 251.33 27.346 253.65 27.346C254.002 27.458 254.178 27.706 254.178 28.09C254.178 28.522 253.898 28.738 253.338 28.738C251.77 28.738 250.122 28.338 248.394 27.538V28.234C248.394 29.882 248.042 30.706 247.338 30.706C246.842 30.706 246.594 29.754 246.594 27.85V25.978L246.522 25.306L246.69 24.538L246.522 22.234V22.138C246.522 21.706 246.746 21.41 247.194 21.25C247.818 20.002 248.546 19.378 249.378 19.378ZM248.178 24.634C248.642 24.634 249.162 23.802 249.738 22.138V21.106L249.45 20.794H249.234C248.53 21.274 248.178 22.554 248.178 24.634ZM259.296 20.218C259.936 20.234 261.016 21.354 262.536 23.578L262.584 23.986C262.584 24.434 261.488 24.778 259.296 25.018L259.224 25.09V25.186C259.56 26.626 259.912 27.346 260.28 27.346H260.568C261.08 27.346 261.856 26.794 262.896 25.69H263.04C263.36 25.69 263.608 25.922 263.784 26.386C263.784 26.77 263.112 27.434 261.768 28.378C261.416 28.586 260.992 28.738 260.496 28.834C259.2 28.834 258.296 27.618 257.784 25.186C257.048 25.074 256.68 24.77 256.68 24.274C256.68 23.922 256.952 23.69 257.496 23.578V23.674L257.736 23.578V22.978C257.736 21.138 258.256 20.218 259.296 20.218ZM259.44 21.946H259.224L259.128 22.834V23.578H259.224C260.12 23.546 260.568 23.45 260.568 23.29C260.152 22.666 259.776 22.218 259.44 21.946ZM268.234 15.61C268.682 15.77 268.906 16.018 268.906 16.354L269.146 25.498V28.45C269.146 28.994 268.914 29.266 268.45 29.266H268.138C267.85 29.074 267.706 28.85 267.706 28.594V25.81L267.49 16.306C267.49 15.906 267.738 15.674 268.234 15.61ZM277.522 19.57C278.226 19.57 278.578 19.85 278.578 20.41L278.362 20.866L278.218 25.258C278.218 27.242 278.618 28.474 279.418 28.954L279.466 29.314C279.418 29.778 279.202 30.01 278.818 30.01H278.674C277.474 29.194 276.874 27.946 276.874 26.266H276.706C276.066 28.058 275.29 28.954 274.378 28.954C273.53 28.714 273.106 28.082 273.106 27.058C273.106 24.802 274.01 22.554 275.818 20.314C276.426 19.818 276.994 19.57 277.522 19.57ZM274.618 26.098L274.522 26.77V27.226H274.762C275.962 24.234 276.562 22.41 276.562 21.754H276.466C275.538 22.794 274.922 24.242 274.618 26.098ZM284.65 20.698L285.634 20.554C286.034 20.554 286.258 20.802 286.306 21.298C286.306 21.73 285.786 22.01 284.746 22.138C284.09 22.65 283.762 23.306 283.762 24.106V24.898C284.082 26.658 284.626 27.538 285.394 27.538H285.634C286.082 27.538 286.754 27.114 287.65 26.266H287.794C288.114 26.266 288.37 26.49 288.562 26.938C288.338 27.626 287.618 28.25 286.402 28.81C286.178 28.906 285.898 28.954 285.562 28.954C283.914 28.954 282.842 27.658 282.346 25.066V24.538C282.346 22.666 283.114 21.386 284.65 20.698ZM293.18 20.626C293.676 20.786 293.924 21.154 293.924 21.73C293.924 22.066 293.7 22.266 293.252 22.33H293.18C292.716 22.33 292.468 22.026 292.436 21.418V21.274C292.436 20.858 292.684 20.642 293.18 20.626ZM293.324 23.17C293.548 23.17 293.804 23.386 294.092 23.818C293.932 24.25 293.852 24.834 293.852 25.57L294.452 31.618V32.314C294.452 34.41 293.948 35.73 292.94 36.274L292.436 36.37C291.332 36.37 290.484 35.266 289.892 33.058L289.724 31.786V31.714C289.724 31.154 289.98 30.874 290.492 30.874C290.924 30.874 291.14 31.314 291.14 32.194C291.14 33.09 291.524 33.978 292.292 34.858L292.484 34.93C292.852 34.274 293.036 33.506 293.036 32.626V31.618L292.436 25.618C292.436 23.986 292.732 23.17 293.324 23.17ZM302.119 19.57C302.823 19.57 303.175 19.85 303.175 20.41L302.959 20.866L302.815 25.258C302.815 27.242 303.215 28.474 304.015 28.954L304.063 29.314C304.015 29.778 303.799 30.01 303.415 30.01H303.271C302.071 29.194 301.471 27.946 301.471 26.266H301.303C300.663 28.058 299.887 28.954 298.975 28.954C298.127 28.714 297.703 28.082 297.703 27.058C297.703 24.802 298.607 22.554 300.415 20.314C301.023 19.818 301.591 19.57 302.119 19.57ZM299.215 26.098L299.119 26.77V27.226H299.359C300.559 24.234 301.159 22.41 301.159 21.754H301.063C300.135 22.794 299.519 24.242 299.215 26.098ZM308.743 27.418C309.079 27.418 309.279 27.69 309.343 28.234C309.247 28.794 308.967 29.074 308.503 29.074C308.183 29.074 307.959 28.794 307.831 28.234C308.023 27.69 308.327 27.418 308.743 27.418ZM29.8965 50.57C30.2805 50.57 30.5285 51.17 30.6405 52.37L30.7365 53.666C30.7365 54.642 30.5605 57.186 30.2085 61.298H30.3525V61.37L30.4485 61.298H30.6405L33.4485 61.514H33.6405L34.8405 61.154H35.0085C35.2645 61.314 35.4405 61.538 35.5365 61.826C35.5365 62.434 34.8565 62.81 33.4965 62.954L31.0485 62.714H30.5925L29.4405 63.026C29.0085 62.866 28.7925 62.61 28.7925 62.258L29.2965 54.026V53.666L29.1525 51.266C29.1525 50.866 29.4005 50.634 29.8965 50.57ZM40.6588 54.218C41.2988 54.234 42.3788 55.354 43.8988 57.578L43.9468 57.986C43.9468 58.434 42.8508 58.778 40.6588 59.018L40.5868 59.09V59.186C40.9228 60.626 41.2748 61.346 41.6428 61.346H41.9308C42.4428 61.346 43.2188 60.794 44.2588 59.69H44.4028C44.7228 59.69 44.9708 59.922 45.1468 60.386C45.1468 60.77 44.4748 61.434 43.1308 62.378C42.7788 62.586 42.3548 62.738 41.8588 62.834C40.5628 62.834 39.6588 61.618 39.1468 59.186C38.4108 59.074 38.0428 58.77 38.0428 58.274C38.0428 57.922 38.3148 57.69 38.8588 57.578V57.674L39.0988 57.578V56.978C39.0988 55.138 39.6188 54.218 40.6588 54.218ZM40.8028 55.946H40.5868L40.4908 56.834V57.578H40.5868C41.4828 57.546 41.9308 57.45 41.9308 57.29C41.5148 56.666 41.1388 56.218 40.8028 55.946ZM51.1811 55.706C52.8771 55.706 53.8771 56.77 54.1811 58.898C54.1811 60.786 53.3011 62.138 51.5411 62.954C51.3491 63.05 51.0851 63.098 50.7491 63.098H50.5811L50.0531 63.05V63.098L50.1491 69.506C50.0371 70.002 49.7811 70.25 49.3811 70.25C48.9331 70.106 48.7091 69.874 48.7091 69.554L48.4931 56.498C48.4931 56.082 48.7411 55.866 49.2371 55.85L49.7411 56.066C50.1891 55.826 50.6691 55.706 51.1811 55.706ZM49.9811 58.25L49.9091 58.994L49.9811 61.538L50.6531 61.706C51.7251 61.706 52.4211 60.922 52.7411 59.354V58.994C52.6291 57.73 52.1811 57.098 51.3971 57.098H51.0371C50.3331 57.098 49.9811 57.482 49.9811 58.25ZM62.2912 53.114C62.7232 53.114 63.0192 53.842 63.1792 55.298C63.0192 55.698 62.7552 55.898 62.3872 55.898C62.1312 55.85 61.8752 55.554 61.6192 55.01L61.1872 54.866C60.4352 54.866 59.7552 55.362 59.1472 56.354V56.57C59.1472 56.81 60.2752 57.21 62.5312 57.77C63.4752 58.33 63.9472 59.01 63.9472 59.81C63.9472 61.122 62.8912 62.242 60.7792 63.17L59.8912 63.314C58.5472 63.17 57.8752 62.498 57.8752 61.298V61.226C57.8752 60.842 58.1232 60.618 58.6192 60.554C59.0032 60.554 59.2592 60.954 59.3872 61.754L59.5792 61.898H59.9872C60.8992 61.898 61.7472 61.274 62.5312 60.026V59.714C62.5312 59.234 61.4832 58.786 59.3872 58.37C58.2832 57.922 57.7312 57.298 57.7312 56.498C57.7312 55.458 58.6032 54.482 60.3472 53.57C61.1152 53.474 61.7632 53.322 62.2912 53.114ZM70.6586 55.586C70.9626 55.586 71.1866 55.81 71.3306 56.258C69.9066 59.874 69.1546 61.874 69.0746 62.258L69.1706 62.33H69.9146C70.6826 62.33 71.7306 61.978 73.0586 61.274C73.5066 61.274 73.7306 61.554 73.7306 62.114C72.8346 63.218 71.4346 63.77 69.5306 63.77L68.4266 63.626C68.0586 63.866 67.8026 63.986 67.6586 63.986C67.1626 63.986 66.9146 63.53 66.9146 62.618C66.9146 62.426 67.1866 62.13 67.7306 61.73L69.3866 57.314V57.218H69.3146L67.2746 57.386C66.7306 57.274 66.4586 57.002 66.4586 56.57C66.4586 56.17 66.6826 55.97 67.1306 55.97C67.9946 55.97 69.1706 55.842 70.6586 55.586ZM81.1112 53.57C81.8152 53.57 82.1672 53.85 82.1672 54.41L81.9512 54.866L81.8072 59.258C81.8072 61.242 82.2072 62.474 83.0072 62.954L83.0552 63.314C83.0072 63.778 82.7912 64.01 82.4072 64.01H82.2632C81.0632 63.194 80.4632 61.946 80.4632 60.266H80.2952C79.6552 62.058 78.8792 62.954 77.9672 62.954C77.1192 62.714 76.6952 62.082 76.6952 61.058C76.6952 58.802 77.5992 56.554 79.4072 54.314C80.0152 53.818 80.5832 53.57 81.1112 53.57ZM78.2072 60.098L78.1112 60.77V61.226H78.3512C79.5512 58.234 80.1512 56.41 80.1512 55.754H80.0552C79.1272 56.794 78.5112 58.242 78.2072 60.098ZM99.9499 55.706C101.646 55.706 102.646 56.77 102.95 58.898C102.95 60.786 102.07 62.138 100.31 62.954C100.118 63.05 99.8539 63.098 99.5179 63.098H99.3499L98.8219 63.05V63.098L98.9179 69.506C98.8059 70.002 98.5499 70.25 98.1499 70.25C97.7019 70.106 97.4779 69.874 97.4779 69.554L97.2619 56.498C97.2619 56.082 97.5099 55.866 98.0059 55.85L98.5099 56.066C98.9579 55.826 99.4379 55.706 99.9499 55.706ZM98.7499 58.25L98.6779 58.994L98.7499 61.538L99.4219 61.706C100.494 61.706 101.19 60.922 101.51 59.354V58.994C101.398 57.73 100.95 57.098 100.166 57.098H99.8059C99.1019 57.098 98.7499 57.482 98.7499 58.25ZM109.404 53.378C110.412 53.378 111.012 54.082 111.204 55.49V55.706C111.204 57.258 110.404 58.682 108.804 59.978C109.732 60.89 111.356 61.346 113.676 61.346C114.028 61.458 114.204 61.706 114.204 62.09C114.204 62.522 113.924 62.738 113.364 62.738C111.796 62.738 110.148 62.338 108.42 61.538V62.234C108.42 63.882 108.068 64.706 107.364 64.706C106.868 64.706 106.62 63.754 106.62 61.85V59.978L106.548 59.306L106.716 58.538L106.548 56.234V56.138C106.548 55.706 106.772 55.41 107.22 55.25C107.844 54.002 108.572 53.378 109.404 53.378ZM108.204 58.634C108.668 58.634 109.188 57.802 109.764 56.138V55.106L109.476 54.794H109.26C108.556 55.274 108.204 56.554 108.204 58.634ZM120.834 55.586C121.138 55.586 121.362 55.81 121.506 56.258C120.082 59.874 119.33 61.874 119.25 62.258L119.346 62.33H120.09C120.858 62.33 121.906 61.978 123.234 61.274C123.682 61.274 123.906 61.554 123.906 62.114C123.01 63.218 121.61 63.77 119.706 63.77L118.602 63.626C118.234 63.866 117.978 63.986 117.834 63.986C117.338 63.986 117.09 63.53 117.09 62.618C117.09 62.426 117.362 62.13 117.906 61.73L119.562 57.314V57.218H119.49L117.45 57.386C116.906 57.274 116.634 57.002 116.634 56.57C116.634 56.17 116.858 55.97 117.306 55.97C118.17 55.97 119.346 55.842 120.834 55.586ZM127.566 55.634C128.126 55.634 128.51 56.866 128.718 59.33C128.99 60.466 129.19 61.034 129.318 61.034H129.462C129.862 60.026 130.062 59.026 130.062 58.034L129.918 56.378C130.094 55.946 130.342 55.73 130.662 55.73C131.254 55.73 131.55 56.778 131.55 58.874C131.902 61.05 132.078 63.074 132.078 64.946V66.074C132.078 69.514 131.102 71.834 129.15 73.034L128.622 73.13C127.71 73.13 126.862 72.282 126.078 70.586L125.862 69.146V69.074C125.862 68.018 126.158 67.49 126.75 67.49L127.35 67.874L127.278 69.386C127.278 70.122 127.654 70.866 128.406 71.618H128.718C129.598 71.618 130.246 69.938 130.662 66.578L130.71 65.186C130.694 63.57 130.63 62.538 130.518 62.09C129.878 62.65 129.374 62.93 129.006 62.93C128.19 62.93 127.462 60.746 126.822 56.378L126.75 56.33C126.75 55.962 127.022 55.73 127.566 55.634ZM140.134 53.114C140.566 53.114 140.862 53.842 141.022 55.298C140.862 55.698 140.598 55.898 140.23 55.898C139.974 55.85 139.718 55.554 139.462 55.01L139.03 54.866C138.278 54.866 137.598 55.362 136.99 56.354V56.57C136.99 56.81 138.118 57.21 140.374 57.77C141.318 58.33 141.79 59.01 141.79 59.81C141.79 61.122 140.734 62.242 138.622 63.17L137.734 63.314C136.39 63.17 135.718 62.498 135.718 61.298V61.226C135.718 60.842 135.966 60.618 136.462 60.554C136.846 60.554 137.102 60.954 137.23 61.754L137.422 61.898H137.83C138.742 61.898 139.59 61.274 140.374 60.026V59.714C140.374 59.234 139.326 58.786 137.23 58.37C136.126 57.922 135.574 57.298 135.574 56.498C135.574 55.458 136.446 54.482 138.19 53.57C138.958 53.474 139.606 53.322 140.134 53.114ZM148.501 55.586C148.805 55.586 149.029 55.81 149.173 56.258C147.749 59.874 146.997 61.874 146.917 62.258L147.013 62.33H147.757C148.525 62.33 149.573 61.978 150.901 61.274C151.349 61.274 151.573 61.554 151.573 62.114C150.677 63.218 149.277 63.77 147.373 63.77L146.269 63.626C145.901 63.866 145.645 63.986 145.501 63.986C145.005 63.986 144.757 63.53 144.757 62.618C144.757 62.426 145.029 62.13 145.573 61.73L147.229 57.314V57.218H147.157L145.117 57.386C144.573 57.274 144.301 57.002 144.301 56.57C144.301 56.17 144.525 55.97 144.973 55.97C145.837 55.97 147.013 55.842 148.501 55.586ZM155.834 49.61C156.282 49.77 156.506 50.018 156.506 50.354L156.746 59.498V62.45C156.746 62.994 156.514 63.266 156.05 63.266H155.738C155.45 63.074 155.306 62.85 155.306 62.594V59.81L155.09 50.306C155.09 49.906 155.338 49.674 155.834 49.61ZM164.474 53.786C165.658 53.786 166.554 54.666 167.162 56.426L167.258 56.93C167.258 58.642 166.458 60.394 164.858 62.186C164.218 62.778 163.57 63.074 162.914 63.074C161.954 63.074 161.274 62.522 160.874 61.418C160.73 60.906 160.658 60.458 160.658 60.074V59.786C160.658 57.258 161.578 55.338 163.418 54.026C163.738 53.866 164.09 53.786 164.474 53.786ZM162.074 60.026C162.074 61.114 162.354 61.658 162.914 61.658C164.082 61.658 165.05 60.162 165.818 57.17V56.714C165.546 55.722 165.042 55.226 164.306 55.226C164.018 55.226 163.874 55.426 163.874 55.826C163.874 56.098 163.554 56.314 162.914 56.474C162.354 57.418 162.074 58.602 162.074 60.026ZM175.305 53.114C175.737 53.114 176.033 53.842 176.193 55.298C176.033 55.698 175.769 55.898 175.401 55.898C175.145 55.85 174.889 55.554 174.633 55.01L174.201 54.866C173.449 54.866 172.769 55.362 172.161 56.354V56.57C172.161 56.81 173.289 57.21 175.545 57.77C176.489 58.33 176.961 59.01 176.961 59.81C176.961 61.122 175.905 62.242 173.793 63.17L172.905 63.314C171.561 63.17 170.889 62.498 170.889 61.298V61.226C170.889 60.842 171.137 60.618 171.633 60.554C172.017 60.554 172.273 60.954 172.401 61.754L172.593 61.898H173.001C173.913 61.898 174.761 61.274 175.545 60.026V59.714C175.545 59.234 174.497 58.786 172.401 58.37C171.297 57.922 170.745 57.298 170.745 56.498C170.745 55.458 171.617 54.482 173.361 53.57C174.129 53.474 174.777 53.322 175.305 53.114ZM170.601 49.85C170.633 49.386 170.873 49.082 171.321 48.938C173.929 47.69 175.537 47.066 176.145 47.066C176.177 47.066 176.201 47.066 176.217 47.066C176.617 47.082 176.841 47.378 176.889 47.954L176.721 48.626C174.545 49.394 173.241 49.834 172.809 49.946C172.649 50.218 172.145 50.482 171.297 50.738C170.913 50.706 170.681 50.41 170.601 49.85ZM182.448 54.698L183.432 54.554C183.832 54.554 184.056 54.802 184.104 55.298C184.104 55.73 183.584 56.01 182.544 56.138C181.888 56.65 181.56 57.306 181.56 58.106V58.898C181.88 60.658 182.424 61.538 183.192 61.538H183.432C183.88 61.538 184.552 61.114 185.448 60.266H185.592C185.912 60.266 186.168 60.49 186.36 60.938C186.136 61.626 185.416 62.25 184.2 62.81C183.976 62.906 183.696 62.954 183.36 62.954C181.712 62.954 180.64 61.658 180.144 59.066V58.538C180.144 56.666 180.912 55.386 182.448 54.698ZM179.952 51.89C179.984 51.426 180.224 51.122 180.672 50.978C183.28 49.73 184.888 49.106 185.496 49.106C185.528 49.106 185.552 49.106 185.568 49.106C185.968 49.122 186.192 49.418 186.24 49.994L186.072 50.666C183.896 51.434 182.592 51.874 182.16 51.986C181.984 52.242 181.48 52.506 180.648 52.778C180.264 52.746 180.032 52.45 179.952 51.89ZM191.675 61.418C192.011 61.418 192.211 61.69 192.275 62.234C192.179 62.794 191.899 63.074 191.435 63.074C191.115 63.074 190.891 62.794 190.763 62.234C190.955 61.69 191.259 61.418 191.675 61.418Z" fill="white"/>
<path id="Vector 14" d="M223.42 62.191C224.935 68.0168 229.22 75.7409 229.313 76.334C231.547 75.7055 232.702 75.3035 235.812 75.334C243.981 75.5566 246.4 73.717 247.697 73.3673C250.552 71.9806 253.086 70.744 255.617 66.0305C257.618 62.3036 259.66 59.1162 258.813 55.834C258.449 54.4258 256.64 51.598 255.312 50.834C254.139 50.1582 249.812 50.0588 248.313 50.403C245.76 50.9886 240.632 59.1401 239.812 54.834C239.573 53.5736 239.833 51.4122 239.273 50.4028C238.076 48.247 236.042 45.3591 233.459 45.5596C232.375 45.6438 230.287 46.5474 228.263 48.9763C224.862 53.0579 222.303 57.8962 223.42 62.191Z" stroke="white" stroke-width="2" stroke-linecap="round"/>
<path id="Vector 15" d="M5.60749 4.47368C5.6414 5.00593 5.55535 6.44626 4.81106 7.52174C4.39318 8.12558 2.88312 9.11671 1.27378 10.3203C0.785356 10.6856 1.04789 10.6591 1.3109 10.637C1.5739 10.6149 1.85103 10.6252 2.12597 10.7082C4.49367 11.4224 6.44433 15.4331 6.87629 16.7799C7.03457 17.2734 7.08684 18.0358 7.17131 18.3087C7.36253 18.9263 7.83518 16.1794 9.32517 13.8165C10.4995 11.9542 11.6962 11.8245 12.1662 11.2127C11.4081 10.5669 8.05538 7.57748 5.88643 5.16552C5.72282 4.86138 5.70491 4.64126 5.51537 3.85352" stroke="white" stroke-width="2" stroke-linecap="round"/>
<path id="Vector 16" d="M322.005 2.31864C322.036 3.58629 321.981 6.43961 321.808 6.97255C321.212 8.80904 318.07 9.53507 317.807 9.92363C317.174 10.8578 321.562 13.1375 323.302 15.0267C323.752 15.5151 323.795 17.4501 324.216 18.6444C325.082 21.0974 325.996 13.3072 326.55 12.1487C326.911 11.3931 328.296 10.6983 329.773 9.78113C330.26 9.47896 329.93 9.14138 329.625 8.93383C327.323 7.36767 323.851 5.45557 323.132 4.23624C322.858 3.52967 322.624 2.72255 322.404 1.92436C322.289 1.56168 322.17 1.28503 322.047 1" stroke="white" stroke-width="2" stroke-linecap="round"/>
<path id="Vector 17" d="M311.623 36.4382C311.862 35.83 312.964 31.9774 313.314 30.2606C313.458 29.5547 314.351 33.25 315.214 34.6282C315.682 35.3736 316.654 35.6431 317.011 35.9352C317.214 36.1009 316.105 37.3798 314.971 39.4307C314.032 41.1279 313.814 42.4787 313.678 43.2524C313.618 43.5939 313.622 43.8391 313.418 43.1588C312.736 40.8885 312.321 39.0983 312.132 38.8689C311.68 38.3203 310.503 38.2343 309.703 37.8771C309.783 37.5545 310.276 37.0832 310.892 36.6018C311.133 36.4054 311.229 36.3063 311.327 36.2041" stroke="white" stroke-width="2" stroke-linecap="round"/>
<path id="Vector 18" d="M13.0545 30.5219C13.0681 29.9387 13.3164 28.0934 14.6013 24.7977C14.8775 24.0894 14.9531 23.7944 15.0197 23.8289C17.0483 24.88 17.6026 29.142 18.5108 29.7628C18.7405 29.9198 18.8947 30.1952 18.8079 30.412C18.3475 31.5628 17.0297 32.0336 16.579 33.6981C16.1925 35.1255 16.1777 36.3606 15.9182 36.76C14.9042 35.4121 14.0006 32.5951 13.3092 31.2936C13.0449 30.9458 12.7017 30.5511 12.0869 29.8306" stroke="white" stroke-width="2" stroke-linecap="round"/>
<path id="Vector 19" d="M104.818 69.857C104.802 69.857 104.785 69.857 113.948 69.8176C123.111 69.7782 141.453 69.6994 153.367 69.3851C165.281 69.0707 170.212 68.5231 174.874 68.2411C179.536 67.959 183.781 67.959 188.155 67.959" stroke="white" stroke-width="2" stroke-linecap="round"/>

</svg>
