<svg width="39" height="42" viewBox="0 0 42 44" fill="none" xmlns="http://www.w3.org/2000/svg" aria-hidden="true">
  <path d="M17.1509 25.0761C22.8167 30.1326 31.4935 29.6215 36.5311 23.9346C41.5688 18.2477 41.0596 9.5384 35.3939 4.48188C29.7282 -0.574646 21.0514 -0.0636024 16.0138 5.62332C10.9761 11.3103 11.4852 20.0195 17.1509 25.0761ZM17.1509 25.0761L14.4145 28.1652M14.4145 28.1652C15.4343 29.0754 15.523 30.6464 14.6125 31.6743L5.32199 42.1621C4.4115 43.19 2.84667 43.2853 1.82684 42.3752C0.807017 41.465 0.718378 39.8939 1.62886 38.8661L10.9194 28.3782C11.8298 27.3504 13.3947 27.255 14.4145 28.1652ZM26.5 4.48188C26.5 4.48188 23.2414 2.54144 19 6.5M3.80785 40.6249C3.80237 40.6249 3.80023 39.5255 3.96358 38.2845C3.99235 38.066 4.45088 38.9923 4.64851 39.3685C4.84613 39.7447 4.90691 39.622 5.22651 38.5929C5.54612 37.5637 6.12269 35.6319 6.44698 34.5747C6.77127 33.5176 6.82581 33.3937 6.91049 33.4301C6.99517 33.4664 7.10834 33.6667 7.35109 34.3857C7.59384 35.1046 7.96273 36.3361 8.18705 37.0415C8.4589 37.8963 8.61651 38.0978 8.75115 38.1805C8.81255 38.2183 8.88938 38.1755 8.98533 38.0263C9.08128 37.8771 9.20156 37.6044 9.53927 36.3375C9.87698 35.0706 10.4285 32.8177 10.7703 31.7504C11.1122 30.683 11.2276 30.8693 11.4635 31.4336C11.6993 31.9978 12.0521 32.9343 12.2487 33.2984C12.3748 33.5318 12.5075 32.266 12.5616 30.8447C12.7185 30.2704 12.9471 29.3956 13.2843 29.3955C13.8157 29.3952 14.0428 30.2956 14.1038 30.2475" stroke="#225EA1" stroke-width="2" stroke-linecap="round"/>
</svg>
