<svg width="35" height="43" viewBox="0 0 35 43" fill="none" xmlns="http://www.w3.org/2000/svg">
<path d="M32.5603 4.27219H24.7657C24.4001 4.27219 24.3652 3.99275 24.2947 3.86417C23.9421 3.22072 23.2283 2.77898 22.4051 2.77898H20.463C20.3568 1.23 18.9802 0 17.3024 0C15.6245 0 14.2479 1.23 14.1417 2.77898H12.1996C11.3863 2.77898 10.6797 3.21009 10.3228 3.8412C10.2464 3.97641 10.1438 4.27219 9.8087 4.27219H2.04452C0.919969 4.27219 0 5.1352 0 6.18988V40.6176C0 41.6723 0.919969 42.5352 2.04452 42.5352H32.5604C33.6849 42.5352 34.605 41.6723 34.605 40.6176V6.18988C34.6048 5.1352 33.6848 4.27219 32.5603 4.27219ZM31.5586 37.7603C31.5586 38.8151 30.6385 39.678 29.5141 39.678H5.09066C3.9661 39.678 3.04613 38.8151 3.04613 37.7603V9.04715C3.04613 7.99247 3.9661 7.12946 5.09066 7.12946H9.85427C10.1894 7.12946 10.2409 7.41245 10.3127 7.54239C10.6663 8.18322 11.3785 8.62267 12.1995 8.62267H22.4051C23.2836 8.62267 24.0374 8.11968 24.3609 7.40502C24.4011 7.31621 24.4609 7.12935 24.796 7.12935H29.5139C30.6384 7.12935 31.5585 7.99236 31.5585 9.04703L31.5586 37.7603Z" fill="white"/>
<path d="M6.51408 14.0006H21.6235C22.0946 14.0006 22.4765 13.6425 22.4765 13.2007C22.4765 12.759 22.0946 12.4009 21.6235 12.4009H6.51408C6.04301 12.4009 5.66113 12.759 5.66113 13.2007C5.66113 13.6425 6.04301 14.0006 6.51408 14.0006Z" fill="white"/>
<path d="M6.51408 24.505H21.6235C22.0946 24.505 22.4765 24.147 22.4765 23.7051C22.4765 23.2634 22.0946 22.9053 21.6235 22.9053H6.51408C6.04301 22.9053 5.66113 23.2634 5.66113 23.7051C5.66113 24.147 6.04301 24.505 6.51408 24.505Z" fill="white"/>
<path d="M25.4618 17.6533H6.51408C6.04301 17.6533 5.66113 18.0114 5.66113 18.4532C5.66113 18.8949 6.04301 19.253 6.51408 19.253H25.4618C25.9329 19.253 26.3147 18.8949 26.3147 18.4532C26.3147 18.0114 25.933 17.6533 25.4618 17.6533Z" fill="white"/>
<path d="M25.4618 28.1587H6.51408C6.04301 28.1587 5.66113 28.5168 5.66113 28.9585C5.66113 29.4003 6.04301 29.7584 6.51408 29.7584H25.4618C25.9329 29.7584 26.3147 29.4003 26.3147 28.9585C26.3147 28.5168 25.933 28.1587 25.4618 28.1587Z" fill="white"/>
<path d="M25.4611 33.4106H20.1039C19.6329 33.4106 19.251 33.7687 19.251 34.2105C19.251 34.6522 19.6329 35.0103 20.1039 35.0103H25.4611C25.9321 35.0103 26.314 34.6522 26.314 34.2105C26.314 33.7687 25.9323 33.4106 25.4611 33.4106Z" fill="white"/>
</svg>
