<svg width="40" height="40" viewBox="0 0 40 40" fill="none" xmlns="http://www.w3.org/2000/svg">
<circle cx="20" cy="20" r="20" fill="#D7316E"/>
<path fill-rule="evenodd" clip-rule="evenodd" d="M9.65396 12.2761C9 13.5595 9 15.2397 9 18.6V21.4C9 24.7603 9 26.4405 9.65396 27.7239C10.2292 28.8529 11.1471 29.7708 12.2761 30.346C13.5595 31 15.2397 31 18.6 31H21.4C24.7603 31 26.4405 31 27.7239 30.346C28.8529 29.7708 29.7708 28.8529 30.346 27.7239C31 26.4405 31 24.7603 31 21.4V18.6C31 15.2397 31 13.5595 30.346 12.2761C29.7708 11.1471 28.8529 10.2292 27.7239 9.65396C26.4405 9 24.7603 9 21.4 9H18.6C15.2397 9 13.5595 9 12.2761 9.65396C11.1471 10.2292 10.2292 11.1471 9.65396 12.2761ZM21.4 11H18.6C16.8868 11 15.7223 11.0016 14.8221 11.0751C13.9452 11.1467 13.4968 11.2766 13.184 11.436C12.4314 11.8195 11.8195 12.4314 11.436 13.184C11.2766 13.4968 11.1467 13.9452 11.0751 14.8221C11.0016 15.7223 11 16.8868 11 18.6V21.4C11 23.1132 11.0016 24.2777 11.0751 25.1779C11.1467 26.0548 11.2766 26.5032 11.436 26.816C11.8195 27.5686 12.4314 28.1805 13.184 28.564C13.4968 28.7234 13.9452 28.8533 14.8221 28.9249C15.7223 28.9984 16.8868 29 18.6 29H21.4C23.1132 29 24.2777 28.9984 25.1779 28.9249C26.0548 28.8533 26.5032 28.7234 26.816 28.564C27.5686 28.1805 28.1805 27.5686 28.564 26.816C28.7234 26.5032 28.8533 26.0548 28.9249 25.1779C28.9984 24.2777 29 23.1132 29 21.4V18.6C29 16.8868 28.9984 15.7223 28.9249 14.8221C28.8533 13.9452 28.7234 13.4968 28.564 13.184C28.1805 12.4314 27.5686 11.8195 26.816 11.436C26.5032 11.2766 26.0548 11.1467 25.1779 11.0751C24.2777 11.0016 23.1132 11 21.4 11Z" fill="white"/>
<path fill-rule="evenodd" clip-rule="evenodd" d="M20 26C23.3137 26 26 23.3137 26 20C26 16.6863 23.3137 14 20 14C16.6863 14 14 16.6863 14 20C14 23.3137 16.6863 26 20 26ZM20 24C22.2091 24 24 22.2091 24 20C24 17.7909 22.2091 16 20 16C17.7909 16 16 17.7909 16 20C16 22.2091 17.7909 24 20 24Z" fill="white"/>
<path d="M26 13C25.4477 13 25 13.4477 25 14C25 14.5523 25.4477 15 26 15C26.5523 15 27 14.5523 27 14C27 13.4477 26.5523 13 26 13Z" fill="white"/>
</svg>
