<svg width="40" height="40" viewBox="0 0 40 40" fill="none" xmlns="http://www.w3.org/2000/svg">
<circle cx="20" cy="20" r="20" fill="#D7316E"/>
<path fill-rule="evenodd" clip-rule="evenodd" d="M28 9C29.6569 9 31 10.3432 31 12V28C31 29.6569 29.6569 31 28 31H12C10.3432 31 9 29.6569 9 28V12C9 10.3432 10.3432 9 12 9H28ZM28 11C28.5523 11 29 11.4477 29 12V28C29 28.5523 28.5523 29 28 29H23V21.9999H25.0762C25.5066 21.9999 25.8887 21.7245 26.0249 21.3161L26.4679 19.9871C26.6298 19.5014 26.2683 18.9999 25.7564 18.9999H23V16.9999C23 16.4999 23.5 15.9999 24 15.9999H26C26.5523 15.9999 27 15.5522 27 14.9999V14.3139C27 13.9909 26.7937 13.7013 26.4813 13.6189C25.1705 13.2729 24 13.273 24 13.273C21.5 13.273 20 14.9999 20 16.4999V18.9999H18C17.4477 18.9999 17 19.4476 17 19.9999V20.9999C17 21.5522 17.4477 21.9999 18 21.9999H20V29H12C11.4477 29 11 28.5523 11 28V12C11 11.4477 11.4477 11 12 11H28Z" fill="white"/>
</svg>
