<svg width="40" height="40" viewBox="0 0 40 40" fill="none" xmlns="http://www.w3.org/2000/svg">
<circle cx="20" cy="20" r="20" fill="#D7316E"/>
<path fill-rule="evenodd" clip-rule="evenodd" d="M8 20.5C8 16.542 8 14.5629 8.9947 13.1756C9.31595 12.7275 9.70479 12.3335 10.1469 12.008C11.516 11 13.469 11 17.375 11H23.625C27.5309 11 29.484 11 30.853 12.008C31.2952 12.3335 31.6841 12.7275 32.0053 13.1756C33 14.5629 33 16.542 33 20.5C33 24.458 33 26.4371 32.0053 27.8244C31.6841 28.2725 31.2952 28.6665 30.853 28.992C29.484 30 27.5309 30 23.625 30H17.375C13.469 30 11.516 30 10.1469 28.992C9.70479 28.6665 9.31595 28.2725 8.9947 27.8244C8 26.4371 8 24.458 8 20.5ZM17.375 13.1111H23.625C25.6244 13.1111 26.9566 13.114 27.9659 13.2248C28.9364 13.3314 29.3583 13.517 29.6285 13.7159C29.8937 13.9112 30.1271 14.1476 30.3199 14.4165C30.5161 14.6903 30.6993 15.1179 30.8045 16.1012C30.9139 17.124 30.9167 18.474 30.9167 20.5C30.9167 22.526 30.9139 23.876 30.8045 24.8988C30.6993 25.8822 30.5161 26.3098 30.3199 26.5836C30.1271 26.8523 29.8937 27.0888 29.6285 27.2842C29.3583 27.483 28.9364 27.6686 27.9659 27.7752C26.9566 27.886 25.6244 27.8889 23.625 27.8889H17.375C15.3756 27.8889 14.0434 27.886 13.0341 27.7752C12.0637 27.6686 11.6417 27.483 11.3715 27.2842C11.1062 27.0888 10.8729 26.8523 10.6802 26.5836C10.4838 26.3098 10.3007 25.8822 10.1956 24.8988C10.0862 23.876 10.0833 22.526 10.0833 20.5C10.0833 18.474 10.0862 17.124 10.1956 16.1012C10.3007 15.1179 10.4838 14.6903 10.6802 14.4165C10.8729 14.1476 11.1062 13.9112 11.3715 13.7159C11.6417 13.517 12.0637 13.3314 13.0341 13.2248C14.0434 13.114 15.3756 13.1111 17.375 13.1111Z" fill="white"/>
<path fill-rule="evenodd" clip-rule="evenodd" d="M17.6624 15.1318C17.3185 14.9549 16.896 14.9562 16.5534 15.1351C16.2108 15.314 16 15.6435 16 16V24C16 24.3565 16.2108 24.686 16.5534 24.8649C16.896 25.0438 17.3185 25.0451 17.6624 24.8682L25.4401 20.8682C25.7863 20.6902 26 20.3589 26 20C26 19.6411 25.7863 19.3098 25.4401 19.1318L17.6624 15.1318ZM22.6493 20L18.2222 22.2768V17.7232L22.6493 20Z" fill="white"/>
</svg>
