<svg width="631" height="149" viewBox="0 0 631 149" fill="none" xmlns="http://www.w3.org/2000/svg">
<path d="M627.65 94.4291C627.744 94.0672 627.845 93.7076 627.933 93.3498C627.644 93.6597 627.562 93.9879 627.65 94.4291ZM625.99 97.0976L626.046 96.9923C626.078 96.9362 626.116 96.8883 626.153 96.8451C626.072 96.9019 626.015 96.9829 625.99 97.0976ZM598.442 66.2877L598.461 66.3078L598.467 66.2853L598.442 66.2877ZM138.535 4.77363C138.698 4.66658 138.862 4.56661 139.028 4.4708C138.838 4.54769 138.668 4.64351 138.535 4.77363ZM132.358 8.826L132.357 8.8266C132.498 8.79644 132.636 8.76096 132.771 8.72074C132.632 8.75386 132.494 8.78874 132.358 8.826ZM630.976 86.9926C630.926 87.9176 630.335 88.7367 630.429 89.6996C630.454 89.9515 630.121 90.1656 629.763 90.1141L629.737 90.052C629.542 90.2431 629.348 90.4341 629.146 90.6251C628.995 90.9498 628.712 91.2757 628.712 91.5986C628.712 91.7997 628.694 91.9972 628.662 92.1924C628.694 92.3964 628.643 92.5756 628.536 92.7406C628.31 93.5213 627.939 94.2771 627.82 95.0767C627.876 95.363 627.876 95.6439 627.794 95.8917C627.807 95.9952 627.826 96.1904 627.851 96.2956C627.882 96.4518 627.555 96.974 627.354 96.974C627.449 96.974 627.455 97.1207 627.361 97.2413C626.505 97.7162 626.241 98.2302 627.015 98.9972C627.392 99.3669 628.423 99.5703 627.901 100.187C627.348 100.829 627.071 101.791 625.983 101.999C624.349 102.311 624.003 103.3 625.065 104.509C625.902 105.458 625.638 106.493 624.455 106.816C624.135 106.905 623.757 106.831 623.418 106.879C620.834 107.238 618.061 105.885 615.633 107.654C615.539 107.724 615.332 107.699 615.193 107.67C613.219 107.265 611.2 107.374 609.207 107.21C605.315 106.891 601.429 106.616 597.511 106.678C593.594 106.74 589.72 107.22 585.816 107.379C585.626 107.43 585.445 107.505 585.25 107.531C580.691 108.142 576.132 108.745 571.573 109.361C571.114 109.423 570.479 109.341 570.573 110.093C570.649 110.682 570.944 111.005 571.642 111.04C572.686 111.094 573.73 111.266 574.774 111.331C575.403 111.37 575.654 111.612 575.943 112.173C576.572 113.415 576.937 114.796 578.088 115.803C579.031 116.627 578.377 118.677 577.163 119.106C575.78 119.596 574.208 119.134 572.881 119.871C571.869 120.316 571.41 121.136 570.806 121.999C569.737 123.538 567.8 124.322 566.298 125.508C565.86 126.053 564.961 126.434 565.814 127.36C566.152 127.727 565.622 128.006 565.249 128.298C564.221 129.106 562.667 128.819 561.789 129.798C560.716 130.995 559.386 131.208 557.802 131.201C556.529 131.195 555.407 130.637 554.214 130.603C550.904 130.506 547.606 130.827 544.312 131.129C543.483 131.205 542.914 131.535 543.003 132.344C543.119 133.415 542.48 133.746 541.563 133.93C540.884 134.065 540.202 134.196 539.537 134.38C537.954 134.817 536.506 135.093 535.471 136.787C534.578 138.249 532.573 139.11 531.06 140.236C530.593 140.784 529.719 141.178 530.484 142.118C530.835 142.55 530.394 142.804 529.976 143.079C528.976 143.734 527.557 143.653 526.764 144.468C525.684 145.58 524.324 145.93 522.915 146.146C510.903 147.987 498.776 148.458 486.638 148.616C474.144 148.779 461.647 148.741 449.152 148.537C437.657 148.349 426.172 148.807 414.683 148.964C398.823 149.183 382.971 148.318 367.119 148.387C350.11 148.461 333.102 148.804 316.092 148.436C305.459 148.206 294.837 147.462 284.197 147.692C274.064 147.911 263.938 148.503 253.806 148.562C231.024 148.695 208.242 148.776 185.456 148.593C155.248 148.351 125.039 148.461 94.8541 147.067C85.2862 146.625 75.6819 146.819 66.1556 145.671C60.392 144.978 54.6567 144.052 48.8811 143.473C46.4288 143.228 44.8398 141.936 43.9966 140.202C43.2961 138.761 42.5485 138.293 41.0595 138.288C40.4225 138.286 39.7855 138.069 39.1498 137.945C38.5851 137.835 38.1349 137.511 38.3418 136.97C38.8794 135.566 37.9236 135.523 36.9106 135.417C33.2743 135.035 29.6348 134.62 25.9965 134.335C23.5756 134.145 22.0068 132.833 21.0736 131.282C20.1977 129.827 19.3123 129.201 17.7064 129.066C17.1178 129.016 16.55 128.763 15.969 128.617C15.2195 128.428 15.0038 127.998 15.2987 127.336C16.3312 125.024 17.5731 122.891 20.3587 122.063C20.5838 121.996 20.8869 121.914 20.9843 121.75C21.781 120.413 23.5046 119.85 24.1403 118.388C24.417 117.784 24.998 117.822 25.5431 117.816C26.3122 117.809 26.9397 117.389 27.2805 116.885C27.6899 116.282 26.7523 116.27 26.4876 115.935C26.0298 115.356 26.2543 114.895 26.9127 114.769C27.837 114.592 28.6614 113.999 29.7542 114.407C30.3962 114.648 31.2042 114.548 30.6157 113.388C30.2485 112.664 30.6125 111.83 31.364 111.282C32.37 109.539 33.473 107.886 35.6392 107.224C35.9303 107.136 36.1573 106.999 36.3535 106.754C37.403 105.443 38.4795 104.152 39.5459 102.853C40.0257 102.814 40.2011 102.219 40.7344 102.278C40.9551 102.202 41.2361 102.241 41.3594 101.983C41.7021 100.897 42.3353 99.9713 43.1263 99.1315C43.127 98.19 43.0679 97.2443 43.1439 96.3087C43.2414 95.1087 42.7384 94.7999 41.5411 95.0738C38.4719 95.774 35.3889 96.4193 32.3116 97.0887C31.0445 97.3643 29.7372 97.9841 28.5205 97.8523C25.8676 97.5648 23.3392 97.8073 20.8108 98.491C20.2235 98.6507 19.7821 98.4052 19.2086 98.1421C17.9296 97.5548 16.9581 96.4695 15.4408 96.243C14.2901 96.0709 14.3505 94.8473 14.0292 94.0914C13.7204 93.3652 14.763 93.3279 15.2578 93.2008C16.4632 92.892 16.7594 92.326 16.301 91.2355C16.1369 90.8457 15.9677 90.4655 15.7703 90.0893C15.5389 89.6481 15.5917 89.1572 16.1444 89.0591C17.7479 88.7758 18.0585 87.5604 18.4106 86.3947C18.6062 85.7477 19.0281 85.3384 19.5771 84.9848C19.706 84.902 19.7198 81.7337 19.589 81.6663C19.4633 81.6019 19.2916 81.4984 19.1746 81.5315C17.9001 81.8922 17.265 81.0057 16.3192 80.4143H16.318C15.4754 80.4143 14.7133 79.3243 13.7047 79.086C12.6414 78.834 12.5967 77.7902 12.3458 77.0816C12.1063 76.4045 13.1601 76.447 13.6437 76.2282C14.1581 75.9958 14.7579 75.7965 14.895 75.305C15.2038 74.202 16.1099 73.4852 16.6707 72.5526C16.6223 71.6844 16.2281 71.1379 15.2214 71.0935C13.6739 71.0243 12.1251 70.8274 10.5827 70.8688C8.07566 70.9356 5.56171 71.2142 3.34518 69.7244C3.22885 69.6327 3.11189 69.5416 2.99557 69.45C2.95029 69.3264 2.96161 69.217 3.02449 69.1211C2.85157 69.0123 2.67991 68.9035 2.50699 68.7941C1.50971 68.7858 0.666483 68.5954 0.674028 67.4096C0.496077 67.2978 0.318127 67.186 0.139548 67.0748C-0.0358881 65.9748 -0.389902 64.7506 1.65559 65.3071C1.78261 65.342 2.01589 65.0327 2.1995 64.8842C2.90062 64.2768 2.70129 63.3418 3.12573 62.6339C3.30871 62.5262 3.49169 62.418 3.67467 62.3098C4.11861 62.0336 4.32548 61.5912 4.57323 61.1766L4.60341 61.1524C4.54745 61.1382 4.49463 61.1275 4.42672 61.1003C3.70485 59.5242 4.07522 58.174 5.11085 56.7753C5.82077 55.816 6.02828 54.3984 5.75286 53.3693C5.23222 51.4247 5.09011 51.1302 6.75769 49.8231C7.1312 49.5298 7.65499 49.3802 7.59462 48.7769C7.46258 47.4646 7.76063 46.4308 9.4301 46.261C9.66087 46.2374 9.85768 46.0239 10.013 45.8358C10.4293 45.3313 10.9002 45.2828 11.4372 45.6631C11.8296 45.9411 12.2949 45.8553 12.7382 45.8908C15.1113 46.0807 17.4806 46.4527 19.8594 45.9086C20.2021 45.8299 20.5473 45.9801 20.8598 46.1451C21.5446 46.1682 22.2287 46.1907 22.9135 46.2131C23.6907 46.3965 24.4811 46.4367 25.2809 46.4603C30.4094 46.61 35.5273 46.9347 40.6457 47.2552C42.5321 47.3735 44.6185 47.9921 46.264 47.2871C47.9574 46.5615 49.5181 46.7495 51.1612 46.6845V46.8164L51.2549 46.7265L51.2643 46.7371C51.4592 46.6029 51.6416 46.4473 51.8522 46.3397C52.2282 46.1487 52.7841 46.1552 52.7898 45.5779C52.7954 44.9593 52.2987 44.8517 51.8013 44.7092C51.3762 44.5873 51.0121 44.3762 50.687 44.0408C48.9874 42.2831 47.782 39.9068 44.7361 39.7868C44.3688 39.772 44.0148 39.4792 43.6533 39.3201C43.0924 39.0741 42.9691 38.6453 43.1634 38.1456C44.0211 35.9325 45.4177 34.1547 47.6084 32.8991C49.1446 32.0191 50.9008 31.2792 51.5246 29.4494C51.883 29.3346 52.0434 28.9041 52.4835 28.9189C52.6187 28.8574 52.7483 28.7781 52.8897 28.7373C53.7845 28.4783 55.1081 28.3949 53.5286 27.2085C53.3255 27.0565 53.3727 26.7732 53.4733 26.5443C54.4555 24.3082 55.8332 22.3896 58.2918 21.383C58.7055 21.2139 59.0149 21.0329 59.3469 20.7082C60.3618 19.717 61.625 18.9606 62.2891 17.6447C62.4173 17.3909 62.9807 17.2135 63.3461 17.2082C63.9963 17.2005 64.4936 16.8918 65.0262 16.6552C66.0461 16.2034 66.0858 15.6031 65.1061 15.0223C64.515 14.6716 64.4572 14.4279 65.1419 14.2168C66.0279 13.9442 66.8523 13.4621 67.8697 13.6384C68.5915 13.7638 69.2329 13.3989 69.8649 13.1114C70.1849 12.9659 70.4358 12.876 70.2201 12.3852C69.4561 10.644 69.9573 10.0272 71.9852 10.2815C84.5474 11.8558 97.1656 11.9191 109.803 11.6595C115.518 11.5418 121.237 11.5897 126.954 11.5465C129.605 11.5258 130.825 10.7162 131.14 8.83015C131.315 8.71364 131.489 8.59653 131.664 8.47943C131.763 8.51965 131.863 8.56047 131.963 8.60068C133.413 8.1518 134.995 7.87146 135.497 6.10193C135.104 6.00967 134.71 5.91742 134.251 5.80919C134.877 5.09948 135.602 4.85524 136.409 4.71212C137.193 4.57254 137.969 4.38329 138.734 4.17156C139.108 4.06865 139.505 3.95806 139.149 3.3968C138.369 2.16665 139.141 1.68463 140.316 1.48C141.104 1.34279 141.896 1.21919 142.69 1.13166C149.975 0.322596 157.302 0.272906 164.618 0.100212C180.326 -0.270016 196.018 0.484628 211.717 0.759638C227.665 1.03879 243.601 1.6261 259.539 2.20155C270.413 2.59366 281.287 2.95973 292.153 3.56534C304.968 4.27977 317.8 4.74818 330.633 5.13615C335.745 5.29051 340.857 5.49219 345.964 5.76897C358.477 6.44674 370.987 7.18008 383.498 7.89038C390.304 8.27598 397.11 8.65568 403.916 9.03833C406.047 9.06376 408.185 8.93247 410.298 9.31216L410.421 9.29205L410.542 9.32043C418.857 9.58361 427.17 9.88642 435.486 10.1011C448.113 10.4258 460.729 10.9587 473.346 11.5288C483.258 11.9777 493.176 12.3331 503.094 12.6726C515.418 13.0943 527.745 13.4432 540.069 13.8507C546.028 14.0482 551.99 14.2328 557.933 14.7402C560.132 14.9283 562.344 15.0886 563.936 16.8557C565.144 18.1953 566.897 18.6264 568.599 18.8571C570.41 19.1025 570.706 20.2599 571.032 21.538C571.058 21.7089 571.083 21.8804 571.108 22.0513C571.913 22.3287 572.278 23.0538 572.718 23.6257C573.447 24.5749 572.743 26.4408 571.58 26.8442C570.467 27.2315 569.328 27.6036 568.165 27.8378C565.839 28.3056 565.001 30.0313 564.173 31.7955C563.814 32.559 564.006 32.9275 564.968 32.8412C566.263 32.7241 567.561 32.6667 568.857 32.5726C577.478 31.9487 586.067 32.2799 594.65 33.1576C597.889 33.4882 598.763 34.3031 598.8 37.3176C598.813 38.491 598.234 39.6058 598.461 40.7916C597.7 41.713 597.084 42.6977 596.927 43.8829C596.807 44.0988 596.656 44.2538 596.391 44.2266L596.436 44.2603C596.335 45.7719 596.6 47.3617 595.203 48.5699C594.757 48.9585 594.719 49.5357 595.254 49.9361C596.216 50.6594 595.87 51.346 595.348 52.1397C594.933 52.772 594.342 53.1676 593.726 53.5574C592.877 54.0896 592.343 54.6982 593.154 55.6226C593.814 56.3666 593.493 57.0184 592.971 57.6524C592.431 58.3059 591.714 58.7311 590.889 58.9848C589.192 59.51 587.476 59.9938 585.702 60.2534C584.212 60.4722 582.665 60.5131 582.231 62.3027C582.181 62.5256 581.904 62.6475 581.672 62.7474C581.288 62.913 580.942 63.1324 581.062 63.592C581.194 64.1148 581.678 64.1325 582.137 64.1597C586.067 64.3916 590.003 64.579 593.915 65.0291C596.21 65.2929 598.524 65.4159 600.806 65.7755C600.926 65.8666 601.045 65.9571 601.158 66.0475C603.303 66.2126 605.503 66.442 607.182 67.7698C608.559 68.8586 610.069 69.6103 611.666 70.2922C614.03 70.647 616.407 70.9185 618.803 70.9486C619.62 70.9587 620.224 71.2911 620.368 71.9996C620.846 74.3688 620.871 76.715 619.167 78.7293C618.696 79.2876 618.639 79.8205 618.796 80.4237C618.979 81.121 619.664 80.9288 620.161 80.998C622.575 81.3333 625.034 81.4203 627.386 82.1069C630.517 83.0213 631.14 83.9072 630.976 86.9926Z" fill="white"/>
</svg>