<svg width="442" height="35" viewBox="0 0 442 35" fill="none" xmlns="http://www.w3.org/2000/svg">
  <path d="M3.21969 0.346627C2.77181 0.0606528 2.23043 -0.0603336 1.70134 0.0285088C1.17237 0.117184 0.701095 0.405584 0.388534 0.83391C0.0759717 1.26224 -0.0549196 1.79902 0.0219949 2.32983C0.0987873 2.8608 0.379157 3.33947 0.788126 3.67876C0.788126 3.67876 0.788126 3.67876 0.788126 3.67876C4.18127 6.49144 7.58392 9.29108 10.9961 12.0777C13.4048 14.0389 15.9127 15.8892 18.5085 17.6189C33.9829 27.9662 52.6722 33.852 71.606 34.1724C78.2379 34.3014 84.8709 34.3937 91.5039 34.4494C96.63 34.4853 101.743 34.3242 106.814 34.1052C138.131 32.5994 169.101 29.8618 200.118 26.9201L199.909 26.9351C234.586 24.8378 269.249 22.4792 303.895 18.9897C329.301 16.4195 355.223 16.1612 380.691 17.8601L380.727 17.8635C392.841 18.7279 404.956 19.5787 417.072 20.4159C424.471 20.9271 431.87 21.4333 439.27 21.9344C439.81 21.9709 440.347 21.799 440.762 21.4484C441.177 21.0979 441.437 20.599 441.485 20.0598C441.533 19.5206 441.364 18.9837 441.017 18.5658C440.669 18.1478 440.172 17.8843 439.633 17.8254C439.633 17.8254 439.633 17.8254 439.633 17.8254C432.26 17.02 424.887 16.2196 417.513 15.4243C405.438 14.1219 393.362 12.8331 381.285 11.5579L381.321 11.5613C355.32 8.93905 329.238 8.44035 303.113 10.4316C268.653 13.0562 233.939 14.7961 199.365 16.4868L199.156 16.5019C168.261 19.0744 137.216 21.6326 106.331 23.1158C101.352 23.3315 96.3317 23.5286 91.5039 23.576C84.8709 23.6317 78.2379 23.724 71.606 23.853C54.5384 24.2174 37.2836 20.1545 21.9015 11.9578C19.3231 10.5864 16.797 9.10109 14.3322 7.50591C10.6376 5.10645 6.93338 2.72002 3.21969 0.346627Z" fill="#D7316E"/>
</svg>
